# xmcd
#
# Track frame offsets: 
#        150
#        25531
#        43965
#        58141
#        76397
#        94241
#        112448
#        123551
#        144105
#        162325
#        166199
#        191228
#        195403
#        209832
#        227088
#        243132
#
# Disc length: 3545 seconds
#
# Revision: 6
# Processed by: cddbd v1.5.2PL0 Copyright (c) Steve Scherf et al.
# Submitted via: ExactAudioCopyFreeDBPlugin 1.0
#
DISCID=e40dd710
DTITLE=Jay-Z - Magna Carta... Holy Grail
DYEAR=2013
DGENRE=Rap
TTITLE0=Holy Grail Feat. Justin Timberlake
TTITLE1=Picasso Baby
TTITLE2=Tom Ford
TTITLE3=FuckWithMeYouKnowIGotIt Feat. Rick Ross
TTITLE4=Oceans Feat. Frank Ocean
TTITLE5=F.U.T.W.
TTITLE6=Somewhere In America
TTITLE7=Crown
TTITLE8=Heaven
TTITLE9=Versus
TTITLE10=Part II (On The Run) Feat. Beyoncé
TTITLE11=Beach Is Better
TTITLE12=BBC
TTITLE13=Jay-Z Blue
TTITLE14=La Familia
TTITLE15=Nickels And Dimes
EXTD=YEAR: 2013
EXTT0=
EXTT1=
EXTT2=
EXTT3=
EXTT4=
EXTT5=
EXTT6=
EXTT7=
EXTT8=
EXTT9=
EXTT10=
EXTT11=
EXTT12=
EXTT13=
EXTT14=
EXTT15=
PLAYORDER=
